<svg width="40" height="40" viewBox="0 0 32 32" fill="none" xmlns="http://www.w3.org/2000/svg" data-v-5b577c54=""><path d="M32 16C32 24.8366 24.8366 32 16 32C7.16344 32 0 24.8366 0 16C0 7.16344 7.16344 0 16 0C24.8366 0 32 7.16344 32 16Z" fill="#536DFE" data-v-5b577c54=""/><path d="M18.6666 10.6667C18.6666 12.1394 17.4727 13.3333 16 13.3333C14.5272 13.3333 13.3333 12.1394 13.3333 10.6667C13.3333 9.19391 14.5272 8 16 8C17.4727 8 18.6666 9.19391 18.6666 10.6667Z" fill="white" data-v-5b577c54=""/><path d="M18.6666 21.3333C18.6666 22.8061 17.4727 24 16 24C14.5272 24 13.3333 22.8061 13.3333 21.3333C13.3333 19.8606 14.5272 18.6667 16 18.6667C17.4727 18.6667 18.6666 19.8606 18.6666 21.3333Z" fill="white" data-v-5b577c54=""/></svg>